<svg xmlns="http://www.w3.org/2000/svg" viewBox="0 0 48 48" width="48" height="48">
  <!-- 花园图标 - 选中态（填充风格） -->
  <g>
    <!-- 花盆 -->
    <path d="M16 38 L16 32 Q16 30 18 30 L30 30 Q32 30 32 32 L32 38 Q32 40 30 40 L18 40 Q16 40 16 38Z" fill="#4A7C59"/>
    <!-- 茎 -->
    <line x1="24" y1="30" x2="24" y2="18" stroke="#4A7C59" stroke-width="2" stroke-linecap="round"/>
    <!-- 叶子 -->
    <path d="M24 24 Q20 22 18 24" stroke="#4A7C59" stroke-width="2" stroke-linecap="round" fill="none"/>
    <path d="M24 24 Q28 22 30 24" stroke="#4A7C59" stroke-width="2" stroke-linecap="round" fill="none"/>
    <!-- 花瓣 - 填充 -->
    <circle cx="24" cy="14" r="4" fill="#4A7C59"/>
    <circle cx="28" cy="16" r="4" fill="#4A7C59"/>
    <circle cx="28" cy="20" r="4" fill="#4A7C59"/>
    <circle cx="24" cy="22" r="4" fill="#4A7C59"/>
    <circle cx="20" cy="20" r="4" fill="#4A7C59"/>
    <circle cx="20" cy="16" r="4" fill="#4A7C59"/>
  </g>
</svg>