<svg xmlns="http://www.w3.org/2000/svg" viewBox="0 0 48 48" width="48" height="48">
  <!-- 花园图标 - 未选中态（描边风格） -->
  <g fill="none" stroke="#888888" stroke-width="2" stroke-linecap="round" stroke-linejoin="round">
    <!-- 花盆 -->
    <path d="M16 38 L16 32 Q16 30 18 30 L30 30 Q32 30 32 32 L32 38 Q32 40 30 40 L18 40 Q16 40 16 38Z"/>
    <!-- 茎 -->
    <line x1="24" y1="30" x2="24" y2="18"/>
    <!-- 叶子 -->
    <path d="M24 24 Q20 22 18 24"/>
    <path d="M24 24 Q28 22 30 24"/>
    <!-- 花瓣 - 简化五瓣花 -->
    <circle cx="24" cy="14" r="4"/>
    <circle cx="28" cy="16" r="4"/>
    <circle cx="28" cy="20" r="4"/>
    <circle cx="24" cy="22" r="4"/>
    <circle cx="20" cy="20" r="4"/>
    <circle cx="20" cy="16" r="4"/>
  </g>
</svg>